<svg width="15" height="15" viewBox="0 0 15 15" fill="none" xmlns="http://www.w3.org/2000/svg">
<g clip-path="url(#clip0_2_478)">
<path d="M12.3589 7.36065C12.3091 6.48818 11.9766 5.64885 11.4036 4.94902C11.229 5.12064 11.0424 5.28172 10.8449 5.43124C10.2382 5.8912 9.56013 6.26663 8.83289 6.54532C8.93431 6.73932 9.02723 6.92721 9.10921 7.10458V7.10624C9.13235 7.1558 9.15462 7.20569 9.17602 7.2559C10.0955 7.16167 11.0647 7.19603 12.0042 7.31188C12.1293 7.3274 12.2472 7.34402 12.3589 7.36065ZM6.65934 3.23134C7.25118 3.99245 7.79695 4.78254 8.29421 5.59807C9.03694 5.33091 9.65093 4.99392 10.1453 4.61868C10.3169 4.4896 10.4784 4.34977 10.6287 4.2002C9.75477 3.52938 8.64906 3.16224 7.50714 3.16372C7.22294 3.16354 6.93927 3.18598 6.65934 3.23078V3.23134ZM2.80234 6.48768C3.21605 6.47815 3.62928 6.45541 4.04125 6.4195C5.03701 6.33821 6.02427 6.18588 6.99397 5.96389C6.48718 5.16032 5.94002 4.37852 5.35424 3.62099C4.72855 3.90389 4.17683 4.3063 3.73653 4.80091C3.29622 5.29553 2.97762 5.87079 2.80234 6.48768ZM3.73152 10.3886C3.96715 10.0744 4.27688 9.72074 4.68803 9.33607C5.57105 8.51021 6.61319 7.86726 7.8193 7.51252L7.85695 7.50255C7.75674 7.30079 7.66261 7.12065 7.56787 6.95105C6.45286 7.24758 5.27833 7.43271 4.10805 7.5286C3.53718 7.57571 3.02522 7.59622 2.64869 7.59954C2.64762 8.6153 3.03026 9.60033 3.73213 10.3886H3.73152ZM9.3321 11.7078C9.0979 10.6299 8.76639 9.57149 8.34097 8.54347C7.12515 8.94642 6.15649 9.53561 5.40768 10.2384C5.10549 10.5169 4.83731 10.8245 4.60786 11.1557C5.44522 11.726 6.46238 12.0334 7.50714 12.032C8.13261 12.0329 8.75234 11.9231 9.3321 11.7089V11.7078ZM10.4696 11.112C11.4177 10.4467 12.0637 9.48556 12.2836 8.41266C12.0771 8.36554 11.8154 8.31843 11.5275 8.28185C10.8875 8.19773 10.2381 8.19158 9.59627 8.26356C9.95766 9.19409 10.2494 10.1459 10.4696 11.1125V11.112ZM7.50714 13.1406C4.15299 13.1406 1.43408 10.6591 1.43408 7.59788C1.43408 4.53664 4.15299 2.05518 7.50714 2.05518C10.8613 2.05518 13.5802 4.53664 13.5802 7.59788C13.5802 10.6591 10.8613 13.1406 7.50714 13.1406Z" fill="#2B2B2B"/>
</g>
<defs>
<clipPath id="clip0_2_478">
<rect width="14.5753" height="13.3025" fill="white" transform="translate(0.219238 0.946777)"/>
</clipPath>
</defs>
</svg>
