<svg width="16" height="15" viewBox="0 0 16 15" fill="none" xmlns="http://www.w3.org/2000/svg">
<g clip-path="url(#clip0_2_462)">
<path d="M8.09601 2.05518C9.74606 2.05518 9.95193 2.06072 10.5993 2.08843C11.2461 2.11615 11.6864 2.20871 12.0739 2.34617C12.4747 2.48695 12.8123 2.67762 13.15 2.98524C13.4588 3.26232 13.6978 3.59748 13.8502 3.96741C14.0002 4.32048 14.1023 4.72288 14.1326 5.31318C14.1612 5.90403 14.1691 6.09193 14.1691 7.59788C14.1691 9.10383 14.163 9.29173 14.1326 9.88258C14.1023 10.4729 14.0002 10.8747 13.8502 11.2284C13.6982 11.5985 13.4592 11.9337 13.15 12.2105C12.8463 12.4923 12.4791 12.7103 12.0739 12.8496C11.687 12.9865 11.2461 13.0796 10.5993 13.1073C9.95193 13.1334 9.74606 13.1406 8.09601 13.1406C6.44596 13.1406 6.24008 13.135 5.59269 13.1073C4.94591 13.0796 4.50562 12.9865 4.11815 12.8496C3.71267 12.7107 3.34537 12.4926 3.04201 12.2105C2.73314 11.9335 2.49418 11.5983 2.34178 11.2284C2.19117 10.8753 2.08975 10.4729 2.05939 9.88258C2.03084 9.29173 2.02295 9.10383 2.02295 7.59788C2.02295 6.09193 2.02902 5.90403 2.05939 5.31318C2.08975 4.72233 2.19117 4.32103 2.34178 3.96741C2.49375 3.59726 2.73277 3.262 3.04201 2.98524C3.34546 2.70325 3.71273 2.48514 4.11815 2.34617C4.50562 2.20871 4.94531 2.11615 5.59269 2.08843C6.24008 2.06238 6.44596 2.05518 8.09601 2.05518ZM8.09601 4.82653C7.29067 4.82653 6.51832 5.11851 5.94886 5.63824C5.3794 6.15797 5.05948 6.86287 5.05948 7.59788C5.05948 8.33289 5.3794 9.03779 5.94886 9.55752C6.51832 10.0773 7.29067 10.3692 8.09601 10.3692C8.90135 10.3692 9.6737 10.0773 10.2432 9.55752C10.8126 9.03779 11.1325 8.33289 11.1325 7.59788C11.1325 6.86287 10.8126 6.15797 10.2432 5.63824C9.6737 5.11851 8.90135 4.82653 8.09601 4.82653ZM12.0435 4.68796C12.0435 4.50421 11.9635 4.32798 11.8212 4.19805C11.6788 4.06812 11.4857 3.99512 11.2844 3.99512C11.083 3.99512 10.8899 4.06812 10.7476 4.19805C10.6052 4.32798 10.5252 4.50421 10.5252 4.68796C10.5252 4.87171 10.6052 5.04794 10.7476 5.17787C10.8899 5.3078 11.083 5.3808 11.2844 5.3808C11.4857 5.3808 11.6788 5.3078 11.8212 5.17787C11.9635 5.04794 12.0435 4.87171 12.0435 4.68796ZM8.09601 5.93507C8.57921 5.93507 9.04262 6.11026 9.3843 6.42209C9.72597 6.73393 9.91793 7.15688 9.91793 7.59788C9.91793 8.03889 9.72597 8.46183 9.3843 8.77367C9.04262 9.0855 8.57921 9.26069 8.09601 9.26069C7.61281 9.26069 7.14939 9.0855 6.80772 8.77367C6.46604 8.46183 6.27409 8.03889 6.27409 7.59788C6.27409 7.15688 6.46604 6.73393 6.80772 6.42209C7.14939 6.11026 7.61281 5.93507 8.09601 5.93507Z" fill="#2B2B2B"/>
</g>
<defs>
<clipPath id="clip0_2_462">
<rect width="14.5753" height="13.3025" fill="white" transform="translate(0.808105 0.946777)"/>
</clipPath>
</defs>
</svg>
