<svg width="15" height="15" viewBox="0 0 15 15" fill="none" xmlns="http://www.w3.org/2000/svg">
<g clip-path="url(#clip0_2_470)">
<path d="M4.22854 3.71798C4.22838 4.01199 4.10026 4.29389 3.87236 4.50168C3.64446 4.70946 3.33546 4.82612 3.01332 4.82597C2.69119 4.82582 2.38231 4.70889 2.15464 4.50089C1.92697 4.2929 1.79916 4.01088 1.79932 3.71687C1.79948 3.42287 1.9276 3.14097 2.1555 2.93318C2.3834 2.72539 2.6924 2.60874 3.01454 2.60889C3.33667 2.60903 3.64555 2.72597 3.87322 2.93396C4.10089 3.14196 4.2287 3.42398 4.22854 3.71798ZM4.26498 5.64684H1.83575V12.5863H4.26498V5.64684ZM8.10315 5.64684H5.68607V12.5863H8.07886V8.94475C8.07886 6.91612 10.9757 6.72767 10.9757 8.94475V12.5863H13.3746V8.19095C13.3746 4.7711 9.08699 4.89858 8.07886 6.57802L8.10315 5.64684Z" fill="#2B2B2B"/>
</g>
<defs>
<clipPath id="clip0_2_470">
<rect width="14.5753" height="13.3025" fill="white" transform="translate(0.0136719 0.946777)"/>
</clipPath>
</defs>
</svg>
