<svg width="15" height="15" viewBox="0 0 15 15" fill="none" xmlns="http://www.w3.org/2000/svg">
<g clip-path="url(#clip0_2_466)">
<path d="M13.8704 4.08171C13.4068 4.26888 12.9151 4.39181 12.4117 4.44642C12.9423 4.15678 13.3395 3.70093 13.5291 3.16384C13.0311 3.43432 12.4852 3.62388 11.9161 3.72642C11.5339 3.35317 11.0272 3.10562 10.4749 3.02227C9.92266 2.93892 9.35567 3.02443 8.86213 3.26552C8.36858 3.50661 7.97614 3.88976 7.74581 4.35541C7.51547 4.82105 7.46015 5.34311 7.58844 5.84041C6.57856 5.79421 5.59061 5.5547 4.68873 5.13741C3.78686 4.72012 2.99122 4.13439 2.35347 3.41825C2.12772 3.77212 2.0091 4.1744 2.00973 4.58388C2.00973 5.38757 2.45792 6.09759 3.13932 6.5133C2.73607 6.50171 2.3417 6.40232 1.98908 6.22341V6.25223C1.9892 6.78749 2.19215 7.30624 2.5635 7.72053C2.93486 8.13482 3.45177 8.41914 4.02659 8.5253C3.65226 8.61788 3.25975 8.63153 2.87879 8.5652C3.04086 9.02593 3.35674 9.42887 3.78221 9.71759C4.20768 10.0063 4.72143 10.1664 5.25153 10.1754C4.72468 10.553 4.12144 10.8322 3.4763 10.9969C2.83116 11.1616 2.15678 11.2087 1.4917 11.1354C2.65268 11.8168 4.00418 12.1786 5.38453 12.1774C10.0565 12.1774 12.6115 8.64502 12.6115 5.58157C12.6115 5.4818 12.6084 5.38092 12.6036 5.28226C13.1009 4.95423 13.5301 4.54786 13.871 4.08226L13.8704 4.08171Z" fill="#2B2B2B"/>
</g>
<defs>
<clipPath id="clip0_2_466">
<rect width="14.5753" height="13.3025" fill="white" transform="translate(0.411133 0.946777)"/>
</clipPath>
</defs>
</svg>
