<svg width="16" height="15" viewBox="0 0 16 15" fill="none" xmlns="http://www.w3.org/2000/svg">
<g clip-path="url(#clip0_2_474)">
<path d="M13.6996 4.54863C13.9772 5.53634 13.9772 7.59823 13.9772 7.59823C13.9772 7.59823 13.9772 9.66011 13.6996 10.6478C13.5454 11.1938 13.0941 11.6233 12.5227 11.7686C11.4848 12.0324 7.90411 12.0324 7.90411 12.0324C7.90411 12.0324 4.32526 12.0324 3.28555 11.7686C2.71165 11.6211 2.26103 11.1921 2.10859 10.6478C1.83105 9.66011 1.83105 7.59823 1.83105 7.59823C1.83105 7.59823 1.83105 5.53634 2.10859 4.54863C2.26285 4.00267 2.71408 3.57311 3.28555 3.4279C4.32526 3.16406 7.90411 3.16406 7.90411 3.16406C7.90411 3.16406 11.4848 3.16406 12.5227 3.4279C13.0966 3.57533 13.5472 4.00434 13.6996 4.54863ZM6.6895 9.53817L10.3333 7.59823L6.6895 5.65828V9.53817Z" fill="#2B2B2B"/>
</g>
<defs>
<clipPath id="clip0_2_474">
<rect width="14.5753" height="13.3025" fill="white" transform="translate(0.616211 0.946777)"/>
</clipPath>
</defs>
</svg>
